<?xml version="1.0" encoding="utf-8"?>
<!-- Generator: Adobe Illustrator 25.2.0, SVG Export Plug-In . SVG Version: 6.00 Build 0)  -->
<svg version="1.1" id="Ebene_1" xmlns="http://www.w3.org/2000/svg" xmlns:xlink="http://www.w3.org/1999/xlink" x="0px" y="0px"
	 viewBox="0 0 226.8 34" style="enable-background:new 0 0 226.8 34;" xml:space="preserve">
<path fill="#009EE3" class="st0" d="M29.9,31.9L33,2.3c0.1-0.7,0.3-1.1,0.6-1.4c0.3-0.3,0.8-0.5,1.5-0.5h9.4c3.6,0,6.2,0.6,7.9,1.9
	c1.7,1.3,2.5,3.1,2.5,5.4c0,1.8-0.6,3.5-1.7,5c-1.1,1.5-2.5,2.6-4.3,3.3v0.2c1.7,0.3,3.1,1.2,4.1,2.5c1,1.3,1.5,2.8,1.5,4.5
	c0,3.3-1.1,5.9-3.4,7.7c-2.3,1.8-5.4,2.7-9.5,2.7H31.6C30.4,33.6,29.8,33.1,29.9,31.9z M42.3,27.4c1.5,0,2.6-0.4,3.5-1.1
	c0.9-0.7,1.3-1.8,1.3-3.2c0-2.2-1.6-3.3-4.8-3.3h-3.9l-0.8,7.6H42.3z M42.4,13.6c1.5,0,2.7-0.4,3.5-1.2c0.9-0.8,1.3-1.7,1.3-2.9
	c0-2-1.3-3-3.9-3h-3.4l-0.8,7.1H42.4z"/>
	<path fill="#009EE3" class="st0" d="M61.2,33.3c-0.3-0.2-0.4-0.6-0.4-1.2L64,1.8c0.1-1,1.1-1.5,3-1.5h1.7c1.8,0,2.7,0.5,2.7,1.5l-2.7,25.7h10.6
	c0.4,0,0.8,0.2,1,0.5c0.2,0.3,0.3,0.8,0.3,1.4v0.3c-0.1,2.7-0.7,4-1.8,4H62.6C61.9,33.6,61.5,33.5,61.2,33.3z"/>
	<path fill="#009EE3" class="st0" d="M90,30.5c-2.3-2.4-3.5-5.8-3.5-10.3c0-3.6,0.6-6.9,1.8-9.9c1.2-3,3.1-5.5,5.6-7.4c2.6-1.9,5.8-2.8,9.8-2.8
	c4.4,0,7.8,1.2,10.1,3.6c2.3,2.4,3.5,5.9,3.5,10.4c0,6.5-1.5,11.4-4.4,14.9s-7.2,5.2-12.7,5.2C95.7,34,92.4,32.8,90,30.5z
	 M107.4,24.3c1.6-2.3,2.4-5.5,2.4-9.7c0-2.8-0.6-4.8-1.7-6.2c-1.1-1.4-2.8-2.1-5-2.1c-2.8,0-5,1.1-6.6,3.4c-1.6,2.3-2.4,5.6-2.4,9.8
	c0,2.7,0.6,4.8,1.7,6.2c1.1,1.4,2.8,2.1,5,2.1C103.6,27.8,105.7,26.6,107.4,24.3z"/>
	<path fill="#009EE3" class="st0" d="M127.6,32.7l-4.2-30l-0.1-0.9c0-0.5,0.2-0.9,0.7-1.1c0.4-0.3,1.2-0.4,2.4-0.4h1.2c1.9,0,2.9,0.5,3,1.5l1.9,15.3
	l0.8,6.8l2.3-6.8l5.6-15.8c0.1-0.4,0.4-0.6,0.9-0.8c0.4-0.1,1.1-0.2,1.9-0.2h1.8c0.8,0,1.4,0.1,1.8,0.2c0.4,0.1,0.7,0.4,0.7,0.8
	l2.1,15.8l0.9,7.2l2.3-7.2l5.3-15.3c0.3-1,1.4-1.5,3.3-1.5h0.5c1.9,0,2.9,0.4,2.9,1.2c0,0.1-0.1,0.5-0.3,1l-10.8,30.3
	c-0.1,0.3-0.4,0.6-0.9,0.7c-0.5,0.2-1.1,0.3-1.8,0.3h-3.5c-0.7,0-1.3-0.1-1.8-0.3c-0.5-0.2-0.7-0.4-0.7-0.7l-2-15.5l-0.6-4.1
	l-1.5,4.3l-5.4,15.4c-0.1,0.3-0.4,0.6-0.9,0.7c-0.5,0.2-1.1,0.3-1.8,0.3h-3.4C128.5,33.7,127.7,33.4,127.6,32.7z"/>
	<path fill="#009EE3" class="st0" d="M171.9,33.3c-0.3-0.2-0.4-0.6-0.4-1.2l3.1-29.8c0.1-0.7,0.3-1.1,0.6-1.4c0.3-0.3,0.8-0.5,1.5-0.5h17.4
	c0.4,0,0.8,0.2,1,0.5s0.3,0.8,0.3,1.4v0.4c-0.1,2.6-0.7,3.9-1.8,3.9h-12l-0.8,6.9h10.6c0.4,0,0.8,0.2,1,0.5c0.2,0.3,0.3,0.8,0.3,1.4
	v0.4c-0.1,2.6-0.7,3.9-1.8,3.9h-10.7l-0.9,7.7h12c0.4,0,0.8,0.2,0.9,0.5c0.2,0.3,0.3,0.8,0.3,1.4v0.4c-0.1,2.6-0.7,3.9-1.8,3.9
	h-17.5C172.6,33.6,172.2,33.5,171.9,33.3z"/>
	<path fill="#009EE3" class="st0" d="M201.9,33.4c-0.4-0.3-0.6-0.6-0.6-1.1l3.1-29.9c0.1-0.7,0.3-1.1,0.6-1.4c0.3-0.3,0.8-0.5,1.5-0.5h9.3
	c7.3,0,11,2.6,11,7.7c0,2.1-0.6,3.9-1.7,5.4c-1.2,1.5-2.7,2.6-4.7,3.3v0.2c0.5,0.2,1.1,0.8,1.6,1.6c0.6,0.8,1,1.8,1.3,2.8l3.1,10.5
	c0.1,0.4,0.1,0.7,0.1,0.9c-0.1,0.6-1.1,1-2.9,1h-1.9c-1.6,0-2.4-0.3-2.7-1l-2.8-9.3c-0.4-1-0.9-1.8-1.4-2.2c-0.6-0.4-1.6-0.6-3-0.6
	h-1.9l-1.2,11.6c-0.1,1-1.1,1.5-3,1.5H204C203,33.7,202.3,33.6,201.9,33.4z M215,14.3c1,0,2-0.4,2.8-1.3c0.8-0.9,1.3-1.9,1.3-3.1
	c0-1-0.3-1.8-1-2.4s-1.5-0.9-2.7-0.9h-4.2l-0.8,7.7H215z"/>
	<path fill="#009EE3" class="st0" d="M21.5,22.2H1.9c-1,0-1.9-0.8-1.9-1.9c0-1,0.8-1.9,1.9-1.9h19.7c1,0,1.9,0.8,1.9,1.9
	C23.4,21.4,22.6,22.2,21.5,22.2z"/>
	<path fill="#009EE3" class="st0" d="M25.3,29.6h-8.5c-1,0-1.9-0.8-1.9-1.9c0-1,0.8-1.9,1.9-1.9h8.5c1,0,1.9,0.8,1.9,1.9
	C27.1,28.7,26.3,29.6,25.3,29.6z"/>
	<path fill="#009EE3" class="st0" d="M27.6,7.5h-5.3c-1,0-1.9-0.8-1.9-1.9s0.8-1.9,1.9-1.9h5.3c1,0,1.9,0.8,1.9,1.9S28.6,7.5,27.6,7.5z"/>
	<path fill="#009EE3" class="st0" d="M26.8,14.9H11.7c-1,0-1.9-0.8-1.9-1.9s0.8-1.9,1.9-1.9h15.1c1,0,1.9,0.8,1.9,1.9S27.8,14.9,26.8,14.9z"/>
</svg>
